# Blender v2.91.0 OBJ File: ''
# www.blender.org
mtllib test.mtl
o Cube
v 1.000000 0.132046 -1.000000
v 1.000000 -0.132046 -1.000000
v 1.000000 0.132046 1.000000
v 1.000000 -0.132046 1.000000
v -1.000000 0.132046 -1.000000
v -1.000000 -0.132046 -1.000000
v -1.000000 0.132046 1.000000
v -1.000000 -0.132046 1.000000
v -1.000000 -0.132046 -0.800000
v 1.000000 0.132046 -0.800000
v -1.000000 0.132046 -0.800000
v 1.000000 -0.132046 -0.800000
v 0.500000 -0.132046 -1.000000
v 0.000000 -0.132046 -1.000000
v -0.500000 -0.132046 -1.000000
v 0.500000 0.132046 1.000000
v 0.000000 0.132046 1.000000
v -0.500000 0.132046 1.000000
v -0.500000 -0.132046 1.000000
v 0.000000 -0.132046 1.000000
v 0.500000 -0.132046 1.000000
v -0.500000 0.132046 -1.000000
v 0.000000 0.132046 -1.000000
v 0.500000 0.132046 -1.000000
v 0.500000 -0.132046 -0.800000
v 0.000000 -0.132046 -0.800000
v -0.500000 -0.132046 -0.800000
v -0.500000 0.132046 -0.800000
v 0.000000 0.132046 -0.800000
v 0.500000 0.132046 -0.800000
v -1.000000 0.132046 -0.800000
v -1.000000 0.132046 -1.000000
v -0.500000 0.132046 -1.000000
v -0.500000 0.132046 -0.800000
v -1.000000 0.132046 -0.800000
v -1.000000 0.132046 -1.000000
v -0.500000 0.132046 -1.000000
v -0.500000 0.132046 -0.800000
v -1.000000 0.232046 -0.800000
v -1.000000 0.232046 -1.000000
v -0.500000 0.232046 -1.000000
v -0.500000 0.232046 -0.800000
v 0.500000 0.232046 -1.000000
v 1.000000 0.232046 -1.000000
v 1.000000 0.232046 -0.800000
v 0.500000 0.232046 -0.800000
v -0.437072 0.332046 -0.937072
v -0.062928 0.332046 -0.937072
v -0.437072 0.332046 -0.862928
v -0.062928 0.332046 -0.862928
v 0.000000 0.132046 -1.000000
v 0.500000 0.132046 -1.000000
v 0.000000 0.132046 -0.800000
v 0.500000 0.132046 -0.800000
v 0.000000 0.332046 -1.000000
v 0.500000 0.332046 -1.000000
v 0.000000 0.332046 -0.800000
v 0.500000 0.332046 -0.800000
v -0.500000 -0.132046 -1.631272
v -1.000000 -0.132046 -1.631272
v 1.000000 0.132046 -1.631272
v 1.000000 -0.132046 -1.631272
v -1.000000 0.132046 -1.631272
v 0.500000 0.132046 -1.631272
v 0.500000 -0.132046 -1.631272
v 0.000000 -0.132046 -1.631272
v -0.500000 0.132046 -1.631272
v 0.000000 0.132046 -1.631272
v -1.000000 0.132046 -1.000000
v -1.000000 -0.132046 -1.000000
v -1.000000 0.132046 -0.800000
v -1.000000 -0.132046 -0.800000
v -0.500000 0.332046 -1.000000
v 0.000000 0.332046 -1.000000
v -0.500000 0.332046 -0.800000
v 0.000000 0.332046 -0.800000
v -0.437072 0.562981 -0.937072
v -0.062928 0.562981 -0.937072
v -0.437072 0.562981 -0.862928
v -0.062928 0.562981 -0.862928
vt 0.812500 0.525000
vt 0.875000 0.525000
vt 0.875000 0.750000
vt 0.812500 0.750000
vt 0.375000 0.937500
vt 0.625000 0.937500
vt 0.625000 1.000000
vt 0.375000 1.000000
vt 0.375000 0.225000
vt 0.625000 0.225000
vt 0.625000 0.225000
vt 0.375000 0.225000
vt 0.312500 0.525000
vt 0.375000 0.525000
vt 0.375000 0.750000
vt 0.312500 0.750000
vt 0.625000 0.525000
vt 0.625000 0.750000
vt 0.625000 0.250000
vt 0.625000 0.312500
vt 0.625000 0.312500
vt 0.625000 0.250000
vt 0.375000 0.500000
vt 0.625000 0.500000
vt 0.312500 0.500000
vt 0.375000 0.000000
vt 0.625000 0.000000
vt 0.812500 0.525000
vt 0.875000 0.525000
vt 0.687500 0.525000
vt 0.625000 0.525000
vt 0.687500 0.525000
vt 0.750000 0.500000
vt 0.750000 0.525000
vt 0.750000 0.525000
vt 0.750000 0.500000
vt 0.625000 0.375000
vt 0.625000 0.312500
vt 0.625000 0.375000
vt 0.125000 0.500000
vt 0.187500 0.500000
vt 0.187500 0.525000
vt 0.125000 0.525000
vt 0.250000 0.500000
vt 0.250000 0.525000
vt 0.375000 0.250000
vt 0.375000 0.250000
vt 0.187500 0.500000
vt 0.250000 0.500000
vt 0.125000 0.500000
vt 0.187500 0.750000
vt 0.125000 0.750000
vt 0.250000 0.750000
vt 0.625000 0.812500
vt 0.375000 0.812500
vt 0.625000 0.875000
vt 0.375000 0.875000
vt 0.687500 0.750000
vt 0.750000 0.750000
vt 0.812500 0.500000
vt 0.812500 0.500000
vt 0.812500 0.525000
vt 0.625000 0.225000
vt 0.625000 0.250000
vt 0.625000 0.312500
vt 0.812500 0.500000
vt 0.875000 0.525000
vt 0.812500 0.525000
vt 0.875000 0.525000
vt 0.625000 0.250000
vt 0.625000 0.312500
vt 0.625000 0.225000
vt 0.812500 0.500000
vt 0.875000 0.500000
vt 0.625000 0.225000
vt 0.625000 0.250000
vt 0.625000 0.312500
vt 0.625000 0.500000
vt 0.687500 0.500000
vt 0.687500 0.500000
vt 0.625000 0.437500
vt 0.625000 0.437500
vt 0.804634 0.507866
vt 0.804634 0.517134
vt 0.804634 0.517134
vt 0.804634 0.507866
vt 0.750000 0.500000
vt 0.750000 0.525000
vt 0.812500 0.525000
vt 0.812500 0.500000
vt 0.625000 0.437500
vt 0.625000 0.375000
vt 0.625000 0.375000
vt 0.625000 0.437500
vt 0.687500 0.525000
vt 0.687500 0.500000
vt 0.687500 0.500000
vt 0.750000 0.500000
vt 0.750000 0.525000
vt 0.687500 0.525000
vt 0.375000 0.437500
vt 0.625000 0.437500
vt 0.625000 0.500000
vt 0.375000 0.500000
vt 0.375000 0.312500
vt 0.625000 0.375000
vt 0.375000 0.375000
vt 0.312500 0.500000
vt 0.625000 0.250000
vt 0.375000 0.250000
vt 0.125000 0.525000
vt 0.125000 0.500000
vt 0.757866 0.507866
vt 0.757866 0.517134
vt 0.757866 0.507866
vt 0.757866 0.517134
vn 0.0000 1.0000 0.0000
vn 0.0000 0.0000 1.0000
vn 0.0000 -1.0000 0.0000
vn 1.0000 0.0000 0.0000
vn -1.0000 0.0000 0.0000
vn 0.0000 0.0000 -1.0000
usemtl Material
s off
f 28/1/1 11/2/1 7/3/1 18/4/1
f 19/5/2 18/6/2 7/7/2 8/8/2
f 9/9/2 11/10/2 71/11/2 72/12/2
f 25/13/3 12/14/3 4/15/3 21/16/3
f 12/14/4 10/17/4 3/18/4 4/15/4
f 5/19/1 22/20/1 67/21/1 63/22/1
f 2/23/4 1/24/4 10/17/4 12/14/4
f 13/25/3 2/23/3 12/14/3 25/13/3
f 8/26/5 7/27/5 11/10/5 9/9/5
f 11/2/2 28/1/2 34/28/2 31/29/2
f 30/30/2 10/17/2 45/31/2 46/32/2
f 23/33/2 29/34/2 53/35/2 51/36/2
f 23/37/6 22/20/6 73/38/6 74/39/6
f 6/40/3 15/41/3 27/42/3 9/43/3
f 15/41/3 14/44/3 26/45/3 27/42/3
f 14/44/3 13/25/3 25/13/3 26/45/3
f 6/46/5 5/19/5 63/22/5 60/47/5
f 14/44/3 15/41/3 59/48/3 66/49/3
f 15/41/3 6/40/3 60/50/3 59/48/3
f 9/43/3 27/42/3 19/51/3 8/52/3
f 27/42/3 26/45/3 20/53/3 19/51/3
f 26/45/3 25/13/3 21/16/3 20/53/3
f 4/15/2 3/18/2 16/54/2 21/55/2
f 21/55/2 16/54/2 17/56/2 20/57/2
f 20/57/2 17/56/2 18/6/2 19/5/2
f 10/17/1 30/30/1 16/58/1 3/18/1
f 30/30/1 29/34/1 17/59/1 16/58/1
f 29/34/1 28/1/1 18/4/1 17/59/1
f 34/28/2 33/60/2 37/61/2 38/62/2
f 5/19/2 11/10/2 31/63/2 32/64/2
f 22/20/2 5/19/2 32/64/2 33/65/2
f 28/1/2 22/66/2 33/60/2 34/28/2
f 35/67/2 38/62/2 42/68/2 39/69/2
f 33/65/2 32/64/2 36/70/2 37/71/2
f 31/29/2 34/28/2 38/62/2 35/67/2
f 32/64/2 31/63/2 35/72/2 36/70/2
f 41/73/1 40/74/1 39/69/1 42/68/1
f 36/70/5 35/72/5 39/75/5 40/76/5
f 38/62/4 37/61/4 41/73/4 42/68/4
f 37/71/6 36/70/6 40/76/6 41/77/6
f 44/78/1 43/79/1 46/32/1 45/31/1
f 10/17/4 1/24/4 44/78/4 45/31/4
f 24/80/5 30/30/5 46/32/5 43/79/5
f 1/24/6 24/81/6 43/82/6 44/78/6
f 47/83/5 49/84/5 79/85/5 77/86/5
f 29/34/4 23/33/4 74/87/4 76/88/4
f 22/66/5 28/1/5 75/89/5 73/90/5
f 28/1/2 29/34/2 76/88/2 75/89/2
f 52/91/6 51/92/6 55/93/6 56/94/6
f 29/34/2 30/30/2 54/95/2 53/35/2
f 24/81/2 23/37/2 51/92/2 52/91/2
f 30/30/2 24/80/2 52/96/2 54/95/2
f 56/97/1 55/98/1 57/99/1 58/100/1
f 51/36/5 53/35/5 57/99/5 55/98/5
f 53/35/2 54/95/2 58/100/2 57/99/2
f 54/95/4 52/96/4 56/97/4 58/100/4
f 65/101/6 64/102/6 61/103/6 62/104/6
f 60/47/6 63/22/6 67/21/6 59/105/6
f 59/105/6 67/21/6 68/106/6 66/107/6
f 66/107/6 68/106/6 64/102/6 65/101/6
f 1/24/4 2/23/4 62/104/4 61/103/4
f 22/20/1 23/37/1 68/106/1 67/21/1
f 2/23/3 13/25/3 65/108/3 62/104/3
f 24/81/1 1/24/1 61/103/1 64/102/1
f 23/37/1 24/81/1 64/102/1 68/106/1
f 13/25/3 14/44/3 66/49/3 65/108/3
f 72/12/5 71/11/5 69/109/5 70/110/5
f 5/19/2 6/46/2 70/110/2 69/109/2
f 6/40/2 9/43/2 72/111/2 70/112/2
f 11/10/2 5/19/2 69/109/2 71/11/2
f 47/83/1 48/113/1 74/87/1 73/90/1
f 50/114/1 49/84/1 75/89/1 76/88/1
f 48/113/1 50/114/1 76/88/1 74/87/1
f 49/84/1 47/83/1 73/90/1 75/89/1
f 78/115/1 77/86/1 79/85/1 80/116/1
f 49/84/2 50/114/2 80/116/2 79/85/2
f 50/114/4 48/113/4 78/115/4 80/116/4
f 48/113/6 47/83/6 77/86/6 78/115/6
